# Blender v2.82 (sub 7) OBJ File: ''
# www.blender.org
mtllib interreserText.mtl
o Text
v 1.827058 0.267547 -0.000000
v 1.827058 -0.181453 -0.000000
v 1.916058 -0.181453 -0.000000
v 1.922063 0.111788 -0.000000
v 2.010555 0.197921 -0.000000
v 2.107990 0.150285 -0.000000
v 2.155264 0.226779 -0.000000
v 2.071667 0.276579 -0.000000
v 1.987305 0.257719 -0.000000
v 1.917053 0.164257 -0.000000
v 1.916058 0.267547 -0.000000
v 1.716186 -0.054125 -0.000000
v 1.583130 -0.108167 -0.000000
v 1.469230 -0.083316 -0.000000
v 1.404891 0.020970 -0.000000
v 1.728504 0.030910 -0.000000
v 1.706543 0.154415 -0.000000
v 1.629947 0.262825 -0.000000
v 1.456518 0.267034 -0.000000
v 1.350269 0.184973 -0.000000
v 1.318901 0.049843 -0.000000
v 1.338226 -0.057474 -0.000000
v 1.407180 -0.150506 -0.000000
v 1.558389 -0.196111 -0.000000
v 1.715695 -0.140997 -0.000000
v 1.411058 0.088547 -0.000000
v 1.431563 0.153396 -0.000000
v 1.532968 0.205943 -0.000000
v 1.624339 0.151426 -0.000000
v 1.637058 0.088547 -0.000000
v 1.217449 0.241466 -0.000000
v 1.121349 0.275083 -0.000000
v 1.002054 0.264032 -0.000000
v 0.944129 0.199066 -0.000000
v 0.949314 0.091742 -0.000000
v 1.135790 -0.031846 -0.000000
v 1.145340 -0.084254 -0.000000
v 1.061789 -0.117150 -0.000000
v 0.935075 -0.053709 -0.000000
v 0.935812 -0.151749 -0.000000
v 1.071872 -0.193488 -0.000000
v 1.209136 -0.150974 -0.000000
v 1.234176 -0.008299 -0.000000
v 1.031376 0.138481 -0.000000
v 1.043484 0.189960 -0.000000
v 1.118225 0.196742 -0.000000
v 1.217114 0.154334 -0.000000
v 0.832449 0.241466 -0.000000
v 0.736349 0.275083 -0.000000
v 0.617054 0.264032 -0.000000
v 0.559129 0.199066 -0.000000
v 0.564314 0.091742 -0.000000
v 0.750790 -0.031846 -0.000000
v 0.760340 -0.084255 -0.000000
v 0.676788 -0.117150 -0.000000
v 0.550075 -0.053710 -0.000000
v 0.550812 -0.151749 -0.000000
v 0.686872 -0.193488 -0.000000
v 0.824136 -0.150974 -0.000000
v 0.849176 -0.008299 -0.000000
v 0.646376 0.138481 -0.000000
v 0.658484 0.189960 -0.000000
v 0.733225 0.196742 -0.000000
v 0.832114 0.154334 -0.000000
v 0.467186 -0.054125 -0.000000
v 0.334130 -0.108167 -0.000000
v 0.220230 -0.083316 -0.000000
v 0.155891 0.020969 -0.000000
v 0.479504 0.030910 -0.000000
v 0.457543 0.154415 -0.000000
v 0.380947 0.262825 -0.000000
v 0.207518 0.267034 -0.000000
v 0.101269 0.184973 -0.000000
v 0.069901 0.049841 -0.000000
v 0.089226 -0.057474 -0.000000
v 0.158179 -0.150506 -0.000000
v 0.309388 -0.196111 -0.000000
v 0.466695 -0.140997 -0.000000
v 0.162058 0.088547 -0.000000
v 0.182563 0.153396 -0.000000
v 0.283968 0.205943 -0.000000
v 0.375339 0.151427 -0.000000
v 0.388058 0.088547 -0.000000
v -0.296942 0.267547 -0.000000
v -0.296942 -0.181453 -0.000000
v -0.207942 -0.181453 -0.000000
v -0.201937 0.111788 -0.000000
v -0.113444 0.197921 -0.000000
v -0.016010 0.150285 -0.000000
v 0.031264 0.226779 -0.000000
v -0.052333 0.276579 -0.000000
v -0.136695 0.257719 -0.000000
v -0.206947 0.164257 -0.000000
v -0.207942 0.267547 -0.000000
v -0.407814 -0.054125 -0.000000
v -0.540870 -0.108167 -0.000000
v -0.654770 -0.083316 -0.000000
v -0.719110 0.020969 -0.000000
v -0.395496 0.030910 -0.000000
v -0.417457 0.154415 -0.000000
v -0.494053 0.262825 -0.000000
v -0.667483 0.267034 -0.000000
v -0.773731 0.184973 -0.000000
v -0.805099 0.049842 -0.000000
v -0.785774 -0.057474 -0.000000
v -0.716820 -0.150506 -0.000000
v -0.565612 -0.196111 -0.000000
v -0.408305 -0.140997 -0.000000
v -0.712942 0.088547 -0.000000
v -0.692437 0.153396 -0.000000
v -0.591032 0.205943 -0.000000
v -0.499661 0.151427 -0.000000
v -0.486942 0.088547 -0.000000
v -1.010942 0.360547 -0.000000
v -1.177942 0.197547 -0.000000
v -1.177942 0.187547 -0.000000
v -1.099942 0.187547 -0.000000
v -1.090462 -0.121524 -0.000000
v -0.971628 -0.196164 -0.000000
v -0.846468 -0.162047 -0.000000
v -0.846496 -0.079159 -0.000000
v -0.920273 -0.109140 -0.000000
v -0.999069 -0.095588 -0.000000
v -1.010942 0.187547 -0.000000
v -0.868942 0.187547 -0.000000
v -0.868942 0.267547 -0.000000
v -1.010942 0.267547 -0.000000
v -1.527942 0.267547 -0.000000
v -1.616942 0.267547 -0.000000
v -1.616942 -0.181453 -0.000000
v -1.527942 -0.181453 -0.000000
v -1.526435 0.145139 -0.000000
v -1.420415 0.212290 -0.000000
v -1.334409 0.154041 -0.000000
v -1.327942 -0.181453 -0.000000
v -1.238942 -0.181453 -0.000000
v -1.254418 0.207110 -0.000000
v -1.385521 0.280761 -0.000000
v -1.524393 0.219524 -0.000000
v -1.753942 0.500547 0.000000
v -1.851942 0.500547 0.000000
v -1.851942 -0.181453 -0.000000
v -1.753942 -0.181453 -0.000000
vt 0.018519 0.000000
vt 1.000000 0.000000
vt 0.000000 0.000000
vt 0.970470 0.000000
vt 0.837743 0.000000
vt 0.520569 0.000000
vt 0.693251 0.000000
vt 0.273422 0.000000
vt 0.496394 0.000000
vt 0.115690 0.000000
vt 0.037037 0.000000
vt 0.452951 0.000000
vt 0.340228 0.000000
vt 0.403488 0.000000
vt 0.878893 0.000000
vt 0.291283 0.000000
vt 0.798800 0.000000
vt 0.956671 0.000000
vt 0.255412 0.000000
vt 0.499845 0.000000
vt 0.755102 0.000000
vt 1.000000 0.000000
vt 0.241253 0.000000
vt 0.536409 0.000000
vt 0.173837 0.000000
vt 0.103045 0.000000
vt 0.742914 0.000000
vt 0.001449 0.000000
vt 0.576998 0.000000
vt 0.639813 0.000000
vt 0.122688 0.000000
vt 0.000823 0.000000
vt 0.065610 0.000000
vt 0.933212 0.000000
vt 0.998805 0.000000
vt 0.161247 0.000000
vt 0.863340 0.000000
vt 0.196546 0.000000
vt 0.801827 0.000000
vt 0.669659 0.000000
vt 0.257190 0.000000
vt 0.293508 0.000000
vt 0.459481 0.000000
vt 0.371938 0.000000
vt 0.451060 0.000000
vt 0.598767 0.000000
vt 0.535718 0.000000
vt 0.122688 0.000000
vt 0.000823 0.000000
vt 0.065610 0.000000
vt 0.933212 0.000000
vt 0.998805 0.000000
vt 0.161246 0.000000
vt 0.863340 0.000000
vt 0.196546 0.000000
vt 0.801827 0.000000
vt 0.669658 0.000000
vt 0.257190 0.000000
vt 0.293508 0.000000
vt 0.459481 0.000000
vt 0.371938 0.000000
vt 0.451060 0.000000
vt 0.598767 0.000000
vt 0.535718 0.000000
vt 0.452951 0.000000
vt 0.340228 0.000000
vt 0.403488 0.000000
vt 0.878893 0.000000
vt 0.291283 0.000000
vt 0.798800 0.000000
vt 0.956671 0.000000
vt 0.255412 0.000000
vt 0.499846 0.000000
vt 0.755102 0.000000
vt 1.000000 0.000000
vt 0.241253 0.000000
vt 0.536409 0.000000
vt 0.173837 0.000000
vt 0.103045 0.000000
vt 0.742914 0.000000
vt 0.001449 0.000000
vt 0.576998 0.000000
vt 0.639813 0.000000
vt 0.018519 0.000000
vt 1.000000 0.000000
vt 0.000000 0.000000
vt 0.970471 0.000000
vt 0.837743 0.000000
vt 0.520569 0.000000
vt 0.693251 0.000000
vt 0.273423 0.000000
vt 0.496394 0.000000
vt 0.115690 0.000000
vt 0.037037 0.000000
vt 0.452951 0.000000
vt 0.340228 0.000000
vt 0.403488 0.000000
vt 0.878893 0.000000
vt 0.291283 0.000000
vt 0.798800 0.000000
vt 0.956671 0.000000
vt 0.255412 0.000000
vt 0.499846 0.000000
vt 0.755102 0.000000
vt 1.000000 0.000000
vt 0.241253 0.000000
vt 0.536409 0.000000
vt 0.173837 0.000000
vt 0.103045 0.000000
vt 0.742914 0.000000
vt 0.001449 0.000000
vt 0.576998 0.000000
vt 0.639813 0.000000
vt 0.017544 0.000000
vt 1.000000 0.000000
vt 0.000000 0.000000
vt 0.982456 0.000000
vt 0.964912 0.000000
vt 0.035088 0.000000
vt 0.052632 0.000000
vt 0.137869 0.000000
vt 0.947368 0.000000
vt 0.834757 0.000000
vt 0.662708 0.000000
vt 0.489054 0.000000
vt 0.511082 0.000000
vt 0.280937 0.000000
vt 0.035714 0.000000
vt 0.000000 0.000000
vt 0.017857 0.000000
vt 0.977157 0.000000
vt 0.633006 0.000000
vt 0.769499 0.000000
vt 0.271543 0.000000
vt 0.076980 0.000000
vt 0.428762 0.000000
vt 0.053571 0.000000
vt 0.517857 0.000000
vt 0.535714 0.000000
vt 0.666667 0.000000
vt 0.000000 0.000000
vt 0.333333 0.000000
vt 1.000000 0.000000
vn 0.0000 -0.0000 1.0000
usemtl None
s off
f 2/1/1 11/2/1 1/3/1
f 2/1/1 10/4/1 11/2/1
f 9/5/1 7/6/1 8/7/1
f 9/5/1 5/8/1 7/6/1
f 5/8/1 6/9/1 7/6/1
f 10/4/1 5/8/1 9/5/1
f 2/1/1 4/10/1 10/4/1
f 4/10/1 5/8/1 10/4/1
f 2/1/1 3/11/1 4/10/1
f 20/12/1 18/13/1 19/14/1
f 28/15/1 18/13/1 20/12/1
f 28/15/1 17/16/1 18/13/1
f 20/12/1 27/17/1 28/15/1
f 29/18/1 17/16/1 28/15/1
f 29/18/1 16/19/1 17/16/1
f 21/20/1 27/17/1 20/12/1
f 21/20/1 26/21/1 27/17/1
f 30/22/1 16/19/1 29/18/1
f 21/20/1 30/22/1 26/21/1
f 21/20/1 16/19/1 30/22/1
f 15/23/1 16/19/1 21/20/1
f 22/24/1 15/23/1 21/20/1
f 22/24/1 14/25/1 15/23/1
f 13/26/1 25/27/1 12/28/1
f 23/29/1 14/25/1 22/24/1
f 23/29/1 13/26/1 14/25/1
f 23/29/1 25/27/1 13/26/1
f 23/29/1 24/30/1 25/27/1
f 33/31/1 31/32/1 32/33/1
f 33/31/1 46/34/1 31/32/1
f 46/34/1 47/35/1 31/32/1
f 34/36/1 46/34/1 33/31/1
f 45/37/1 46/34/1 34/36/1
f 35/38/1 45/37/1 34/36/1
f 35/38/1 44/39/1 45/37/1
f 35/38/1 43/40/1 44/39/1
f 36/41/1 43/40/1 35/38/1
f 37/42/1 43/40/1 36/41/1
f 40/43/1 38/44/1 39/45/1
f 37/42/1 42/46/1 43/40/1
f 38/44/1 42/46/1 37/42/1
f 40/43/1 42/46/1 38/44/1
f 41/47/1 42/46/1 40/43/1
f 50/48/1 48/49/1 49/50/1
f 50/48/1 63/51/1 48/49/1
f 63/51/1 64/52/1 48/49/1
f 51/53/1 63/51/1 50/48/1
f 62/54/1 63/51/1 51/53/1
f 52/55/1 62/54/1 51/53/1
f 52/55/1 61/56/1 62/54/1
f 52/55/1 60/57/1 61/56/1
f 53/58/1 60/57/1 52/55/1
f 54/59/1 60/57/1 53/58/1
f 57/60/1 55/61/1 56/62/1
f 54/59/1 59/63/1 60/57/1
f 55/61/1 59/63/1 54/59/1
f 57/60/1 59/63/1 55/61/1
f 58/64/1 59/63/1 57/60/1
f 73/65/1 71/66/1 72/67/1
f 81/68/1 71/66/1 73/65/1
f 81/68/1 70/69/1 71/66/1
f 73/65/1 80/70/1 81/68/1
f 82/71/1 70/69/1 81/68/1
f 82/71/1 69/72/1 70/69/1
f 74/73/1 80/70/1 73/65/1
f 74/73/1 79/74/1 80/70/1
f 83/75/1 69/72/1 82/71/1
f 74/73/1 83/75/1 79/74/1
f 74/73/1 69/72/1 83/75/1
f 68/76/1 69/72/1 74/73/1
f 75/77/1 68/76/1 74/73/1
f 75/77/1 67/78/1 68/76/1
f 66/79/1 78/80/1 65/81/1
f 76/82/1 67/78/1 75/77/1
f 76/82/1 66/79/1 67/78/1
f 76/82/1 78/80/1 66/79/1
f 76/82/1 77/83/1 78/80/1
f 85/84/1 94/85/1 84/86/1
f 85/84/1 93/87/1 94/85/1
f 92/88/1 90/89/1 91/90/1
f 92/88/1 88/91/1 90/89/1
f 88/91/1 89/92/1 90/89/1
f 93/87/1 88/91/1 92/88/1
f 85/84/1 87/93/1 93/87/1
f 87/93/1 88/91/1 93/87/1
f 85/84/1 86/94/1 87/93/1
f 103/95/1 101/96/1 102/97/1
f 111/98/1 101/96/1 103/95/1
f 111/98/1 100/99/1 101/96/1
f 103/95/1 110/100/1 111/98/1
f 112/101/1 100/99/1 111/98/1
f 112/101/1 99/102/1 100/99/1
f 104/103/1 110/100/1 103/95/1
f 104/103/1 109/104/1 110/100/1
f 113/105/1 99/102/1 112/101/1
f 104/103/1 113/105/1 109/104/1
f 104/103/1 99/102/1 113/105/1
f 98/106/1 99/102/1 104/103/1
f 105/107/1 98/106/1 104/103/1
f 105/107/1 97/108/1 98/106/1
f 96/109/1 108/110/1 95/111/1
f 106/112/1 97/108/1 105/107/1
f 106/112/1 96/109/1 97/108/1
f 106/112/1 108/110/1 96/109/1
f 106/112/1 107/113/1 108/110/1
f 115/114/1 127/115/1 114/116/1
f 115/114/1 126/117/1 127/115/1
f 115/114/1 125/118/1 126/117/1
f 116/119/1 125/118/1 115/114/1
f 117/120/1 125/118/1 116/119/1
f 118/121/1 124/122/1 117/120/1
f 124/122/1 125/118/1 117/120/1
f 118/121/1 123/123/1 124/122/1
f 122/124/1 120/125/1 121/126/1
f 118/121/1 122/124/1 123/123/1
f 118/121/1 120/125/1 122/124/1
f 119/127/1 120/125/1 118/121/1
f 130/128/1 128/129/1 129/130/1
f 130/128/1 139/131/1 128/129/1
f 139/131/1 137/132/1 138/133/1
f 139/131/1 133/134/1 137/132/1
f 130/128/1 132/135/1 139/131/1
f 132/135/1 133/134/1 139/131/1
f 134/136/1 137/132/1 133/134/1
f 130/128/1 131/137/1 132/135/1
f 135/138/1 137/132/1 134/136/1
f 135/138/1 136/139/1 137/132/1
f 142/140/1 140/141/1 141/142/1
f 142/140/1 143/143/1 140/141/1
