# Blender v2.82 (sub 7) OBJ File: ''
# www.blender.org
mtllib title2.mtl
o Text_Text.001
v 2.393755 0.171376 -0.000000
v 2.393755 -0.277624 -0.000000
v 2.482754 -0.277624 -0.000000
v 2.484876 0.054057 -0.000000
v 2.562947 0.105268 -0.000000
v 2.662846 0.078729 -0.000000
v 2.675755 -0.277624 -0.000000
v 2.764755 -0.277624 -0.000000
v 2.765652 0.051319 -0.000000
v 2.836554 0.101336 -0.000000
v 2.884839 0.104319 -0.000000
v 2.948525 0.062794 -0.000000
v 2.957755 -0.277624 -0.000000
v 3.046755 -0.277624 -0.000000
v 3.044529 0.048233 -0.000000
v 2.988299 0.159256 -0.000000
v 2.849037 0.176252 -0.000000
v 2.747443 0.102191 -0.000000
v 2.693253 0.165194 -0.000000
v 2.577966 0.177420 -0.000000
v 2.484310 0.116945 -0.000000
v 2.482754 0.171376 -0.000000
v 2.269755 0.171376 -0.000000
v 2.180755 0.171376 -0.000000
v 2.180755 -0.277624 -0.000000
v 2.269755 -0.277624 -0.000000
v 2.275428 0.331539 -0.000000
v 2.225754 0.363447 -0.000000
v 2.178337 0.334547 -0.000000
v 2.176082 0.283212 -0.000000
v 2.225755 0.251304 -0.000000
v 2.273173 0.280204 -0.000000
v 2.073883 -0.150296 -0.000000
v 1.940826 -0.204338 -0.000000
v 1.826926 -0.179488 -0.000000
v 1.762587 -0.075202 -0.000000
v 2.086201 -0.065261 -0.000000
v 2.064241 0.058242 -0.000000
v 2.022287 0.131304 -0.000000
v 1.933069 0.178381 -0.000000
v 1.814214 0.170863 -0.000000
v 1.707965 0.088802 -0.000000
v 1.676597 -0.046333 -0.000000
v 1.695923 -0.153646 -0.000000
v 1.764877 -0.246678 -0.000000
v 1.916084 -0.292282 -0.000000
v 2.073392 -0.237168 -0.000000
v 1.768755 -0.007624 -0.000000
v 1.789260 0.057225 -0.000000
v 1.890665 0.109772 -0.000000
v 1.982034 0.055257 -0.000000
v 1.994755 -0.007624 -0.000000
v 1.286755 0.404376 -0.000000
v 1.197755 0.404376 -0.000000
v 1.197755 -0.277624 -0.000000
v 1.286755 -0.277624 -0.000000
v 1.288261 0.048967 -0.000000
v 1.394282 0.116119 -0.000000
v 1.480289 0.057869 -0.000000
v 1.486755 -0.277624 -0.000000
v 1.575755 -0.277624 -0.000000
v 1.573235 0.047531 -0.000000
v 1.508867 0.166458 -0.000000
v 1.354838 0.169324 -0.000000
v 1.287562 0.112049 -0.000000
v 1.075146 0.145295 -0.000000
v 0.979046 0.178912 -0.000000
v 0.859751 0.167861 -0.000000
v 0.801826 0.102894 -0.000000
v 0.807011 -0.004429 -0.000000
v 0.993487 -0.128017 -0.000000
v 1.003037 -0.180426 -0.000000
v 0.919485 -0.213322 -0.000000
v 0.792772 -0.149881 -0.000000
v 0.793509 -0.247921 -0.000000
v 0.929569 -0.289659 -0.000000
v 1.066833 -0.247145 -0.000000
v 1.097247 -0.133180 -0.000000
v 1.049764 -0.066089 -0.000000
v 0.889073 0.042310 -0.000000
v 0.901181 0.093789 -0.000000
v 0.975922 0.100571 -0.000000
v 1.074811 0.058162 -0.000000
v 0.446755 0.408376 -0.000000
v 0.377755 0.408376 -0.000000
v 0.084755 -0.277624 -0.000000
v 0.184755 -0.277624 -0.000000
v 0.270755 -0.076624 -0.000000
v 0.560755 -0.076624 -0.000000
v 0.651755 -0.277624 -0.000000
v 0.751755 -0.277624 -0.000000
v 0.410755 0.258376 -0.000000
v 0.520755 0.011376 -0.000000
v 0.308755 0.011376 -0.000000
v -0.520245 0.171376 -0.000000
v -0.520245 -0.277624 -0.000000
v -0.431245 -0.277624 -0.000000
v -0.425241 0.015617 -0.000000
v -0.336748 0.101750 -0.000000
v -0.239313 0.054114 -0.000000
v -0.192039 0.130608 -0.000000
v -0.275636 0.180408 -0.000000
v -0.359999 0.161548 -0.000000
v -0.430250 0.068086 -0.000000
v -0.431245 0.171376 -0.000000
v -0.933685 0.176086 -0.000000
v -1.049261 0.105031 -0.000000
v -1.102973 -0.000937 -0.000000
v -1.095106 -0.130735 -0.000000
v -1.029312 -0.231451 -0.000000
v -0.919631 -0.284335 -0.000000
v -0.735266 -0.262422 -0.000000
v -0.635532 -0.132796 -0.000000
v -0.629750 0.016473 -0.000000
v -0.737168 0.156552 -0.000000
v -0.786889 0.084889 -0.000000
v -0.719173 -0.006689 -0.000000
v -0.728170 -0.128215 -0.000000
v -0.803112 -0.197586 -0.000000
v -0.901636 -0.205090 -0.000000
v -0.995412 -0.145937 -0.000000
v -1.004863 0.023645 -0.000000
v -0.910300 0.097625 -0.000000
v -1.307245 0.264376 -0.000000
v -1.474245 0.101376 -0.000000
v -1.474245 0.091376 -0.000000
v -1.396245 0.091376 -0.000000
v -1.386766 -0.217695 -0.000000
v -1.267932 -0.292336 -0.000000
v -1.142772 -0.258218 -0.000000
v -1.142799 -0.175331 -0.000000
v -1.216576 -0.205311 -0.000000
v -1.295373 -0.191760 -0.000000
v -1.307245 0.091376 -0.000000
v -1.165245 0.091376 -0.000000
v -1.165245 0.171376 -0.000000
v -1.307245 0.171376 -0.000000
v -1.493245 0.171376 -0.000000
v -1.599245 0.171376 -0.000000
v -1.798245 -0.048624 -0.000000
v -1.573245 -0.277624 -0.000000
v -1.453245 -0.277624 -0.000000
v -1.685245 -0.048624 -0.000000
v -1.802245 0.404376 -0.000000
v -1.891245 0.404376 -0.000000
v -1.891245 -0.277624 -0.000000
v -1.802245 -0.277624 -0.000000
v -2.018245 0.171376 -0.000000
v -2.107245 0.171376 -0.000000
v -2.107245 -0.277624 -0.000000
v -2.018245 -0.277624 -0.000000
v -2.047864 0.362981 -0.000000
v -2.108232 0.337849 -0.000000
v -2.111919 0.283213 -0.000000
v -2.047499 0.250142 -0.000000
v -2.006922 0.310911 -0.000000
v -2.172245 0.404376 -0.000000
v -2.269245 0.404376 -0.000000
v -2.473245 -0.074624 -0.000000
v -2.678245 0.404376 -0.000000
v -2.776245 0.404376 -0.000000
v -2.471205 -0.286745 -0.000000
vt 0.009434 0.000000
vt 1.000000 0.000000
vt 0.000000 0.000000
vt 0.987918 0.000000
vt 0.821452 0.000000
vt 0.908000 0.000000
vt 0.762978 0.000000
vt 0.609111 0.000000
vt 0.681443 0.000000
vt 0.411482 0.000000
vt 0.032462 0.000000
vt 0.112471 0.000000
vt 0.364010 0.000000
vt 0.202459 0.000000
vt 0.468389 0.000000
vt 0.554369 0.000000
vt 0.285253 0.000000
vt 0.018868 0.000000
vt 0.273585 0.000000
vt 0.528302 0.000000
vt 0.264151 0.000000
vt 0.518868 0.000000
vt 0.471336 0.000000
vt 0.145848 0.000000
vt 0.313476 0.000000
vt 0.616436 0.000000
vt 0.941924 0.000000
vt 0.784064 0.000000
vt 0.039216 0.000000
vt 0.000000 0.000000
vt 0.019608 0.000000
vt 0.058824 0.000000
vt 0.403488 0.000000
vt 0.321955 0.000000
vt 0.361061 0.000000
vt 0.452951 0.000000
vt 0.878893 0.000000
vt 0.291282 0.000000
vt 0.798800 0.000000
vt 0.956670 0.000000
vt 0.255412 0.000000
vt 0.499847 0.000000
vt 0.755102 0.000000
vt 1.000000 0.000000
vt 0.241253 0.000000
vt 0.536410 0.000000
vt 0.173836 0.000000
vt 0.103045 0.000000
vt 0.742914 0.000000
vt 0.001449 0.000000
vt 0.576999 0.000000
vt 0.639812 0.000000
vt 0.035714 0.000000
vt 0.000000 0.000000
vt 0.017857 0.000000
vt 0.991473 0.000000
vt 0.693556 0.000000
vt 0.864220 0.000000
vt 0.271543 0.000000
vt 0.076979 0.000000
vt 0.585618 0.000000
vt 0.428763 0.000000
vt 0.053571 0.000000
vt 0.517857 0.000000
vt 0.535714 0.000000
vt 0.122688 0.000000
vt 0.000823 0.000000
vt 0.065610 0.000000
vt 0.933212 0.000000
vt 0.998805 0.000000
vt 0.161247 0.000000
vt 0.863340 0.000000
vt 0.196546 0.000000
vt 0.801827 0.000000
vt 0.701602 0.000000
vt 0.257190 0.000000
vt 0.654426 0.000000
vt 0.293508 0.000000
vt 0.459481 0.000000
vt 0.371938 0.000000
vt 0.451060 0.000000
vt 0.598767 0.000000
vt 0.535718 0.000000
vt 0.200000 0.000000
vt 0.000000 0.000000
vt 0.100000 0.000000
vt 0.800000 0.000000
vt 0.700000 0.000000
vt 1.000000 0.000000
vt 0.900000 0.000000
vt 0.400000 0.000000
vt 0.500000 0.000000
vt 0.300000 0.000000
vt 0.600000 0.000000
vt 0.018519 0.000000
vt 1.000000 0.000000
vt 0.000000 0.000000
vt 0.970470 0.000000
vt 0.837743 0.000000
vt 0.520569 0.000000
vt 0.693251 0.000000
vt 0.273423 0.000000
vt 0.496394 0.000000
vt 0.115690 0.000000
vt 0.037037 0.000000
vt 0.068543 0.000000
vt 0.461918 0.000000
vt 0.021505 0.000000
vt 0.896455 0.000000
vt 0.548276 0.000000
vt 0.400551 0.000000
vt 0.922356 0.000000
vt 0.110259 0.000000
vt 0.609740 0.000000
vt 0.153030 0.000000
vt 0.834740 0.000000
vt 0.352031 0.000000
vt 0.670104 0.000000
vt 0.724973 0.000000
vt 0.194705 0.000000
vt 0.295938 0.000000
vt 0.774557 0.000000
vt 0.236237 0.000000
vt 0.017544 0.000000
vt 1.000000 0.000000
vt 0.000000 0.000000
vt 0.982456 0.000000
vt 0.964912 0.000000
vt 0.035088 0.000000
vt 0.052632 0.000000
vt 0.137869 0.000000
vt 0.947368 0.000000
vt 0.834757 0.000000
vt 0.662708 0.000000
vt 0.489054 0.000000
vt 0.511082 0.000000
vt 0.280937 0.000000
vt 0.888889 0.000000
vt 0.666667 0.000000
vt 0.777778 0.000000
vt 1.000000 0.000000
vt 0.222222 0.000000
vt 0.000000 0.000000
vt 0.111111 0.000000
vt 0.555556 0.000000
vt 0.333333 0.000000
vt 0.444444 0.000000
vt 0.461675 0.000000
vt 0.441174 0.000000
vt 0.274693 0.000000
vt 0.616433 0.000000
vt 0.823617 0.000000
vt 0.039216 0.000000
vt 0.000000 0.000000
vt 0.019608 0.000000
vt 0.058824 0.000000
vt 0.917007 0.000000
vt 0.500000 0.000000
vt 0.666667 0.000000
vt 0.333333 0.000000
vt 0.000000 0.000000
vt 0.166667 0.000000
vn 0.0000 -0.0000 1.0000
usemtl None
s off
f 2/1/1 22/2/1 1/3/1
f 2/1/1 21/4/1 22/2/1
f 21/4/1 19/5/1 20/6/1
f 18/7/1 16/8/1 17/9/1
f 18/7/1 11/10/1 16/8/1
f 2/1/1 4/11/1 21/4/1
f 4/11/1 5/12/1 21/4/1
f 5/12/1 19/5/1 21/4/1
f 5/12/1 18/7/1 19/5/1
f 10/13/1 11/10/1 18/7/1
f 6/14/1 18/7/1 5/12/1
f 6/14/1 10/13/1 18/7/1
f 12/15/1 16/8/1 11/10/1
f 12/15/1 15/16/1 16/8/1
f 6/14/1 9/17/1 10/13/1
f 2/1/1 3/18/1 4/11/1
f 6/14/1 8/19/1 9/17/1
f 12/15/1 14/20/1 15/16/1
f 7/21/1 8/19/1 6/14/1
f 13/22/1 14/20/1 12/15/1
f 29/23/1 27/24/1 28/25/1
f 30/26/1 27/24/1 29/23/1
f 30/26/1 32/27/1 27/24/1
f 30/26/1 31/28/1 32/27/1
f 25/29/1 23/30/1 24/31/1
f 25/29/1 26/32/1 23/30/1
f 41/33/1 39/34/1 40/35/1
f 42/36/1 39/34/1 41/33/1
f 50/37/1 39/34/1 42/36/1
f 50/37/1 38/38/1 39/34/1
f 42/36/1 49/39/1 50/37/1
f 51/40/1 38/38/1 50/37/1
f 51/40/1 37/41/1 38/38/1
f 43/42/1 49/39/1 42/36/1
f 43/42/1 48/43/1 49/39/1
f 52/44/1 37/41/1 51/40/1
f 43/42/1 52/44/1 48/43/1
f 43/42/1 37/41/1 52/44/1
f 36/45/1 37/41/1 43/42/1
f 44/46/1 36/45/1 43/42/1
f 44/46/1 35/47/1 36/45/1
f 34/48/1 47/49/1 33/50/1
f 45/51/1 35/47/1 44/46/1
f 45/51/1 34/48/1 35/47/1
f 45/51/1 47/49/1 34/48/1
f 45/51/1 46/52/1 47/49/1
f 55/53/1 53/54/1 54/55/1
f 55/53/1 65/56/1 53/54/1
f 65/56/1 63/57/1 64/58/1
f 65/56/1 58/59/1 63/57/1
f 55/53/1 57/60/1 65/56/1
f 57/60/1 58/59/1 65/56/1
f 58/59/1 62/61/1 63/57/1
f 59/62/1 62/61/1 58/59/1
f 55/53/1 56/63/1 57/60/1
f 60/64/1 62/61/1 59/62/1
f 60/64/1 61/65/1 62/61/1
f 68/66/1 66/67/1 67/68/1
f 68/66/1 82/69/1 66/67/1
f 82/69/1 83/70/1 66/67/1
f 69/71/1 82/69/1 68/66/1
f 81/72/1 82/69/1 69/71/1
f 70/73/1 81/72/1 69/71/1
f 70/73/1 80/74/1 81/72/1
f 70/73/1 79/75/1 80/74/1
f 71/76/1 79/75/1 70/73/1
f 71/76/1 78/77/1 79/75/1
f 72/78/1 78/77/1 71/76/1
f 75/79/1 73/80/1 74/81/1
f 72/78/1 77/82/1 78/77/1
f 73/80/1 77/82/1 72/78/1
f 75/79/1 77/82/1 73/80/1
f 76/83/1 77/82/1 75/79/1
f 86/84/1 84/85/1 85/86/1
f 86/84/1 92/87/1 84/85/1
f 92/87/1 91/88/1 84/85/1
f 86/84/1 94/89/1 92/87/1
f 93/90/1 91/88/1 92/87/1
f 86/84/1 88/91/1 94/89/1
f 88/91/1 93/90/1 94/89/1
f 88/91/1 89/92/1 93/90/1
f 89/92/1 91/88/1 93/90/1
f 86/84/1 87/93/1 88/91/1
f 90/94/1 91/88/1 89/92/1
f 96/95/1 105/96/1 95/97/1
f 96/95/1 104/98/1 105/96/1
f 103/99/1 101/100/1 102/101/1
f 103/99/1 99/102/1 101/100/1
f 99/102/1 100/103/1 101/100/1
f 104/98/1 99/102/1 103/99/1
f 96/95/1 98/104/1 104/98/1
f 98/104/1 99/102/1 104/98/1
f 96/95/1 97/105/1 98/104/1
f 107/106/1 115/107/1 106/108/1
f 123/109/1 115/107/1 107/106/1
f 116/110/1 115/107/1 123/109/1
f 116/110/1 114/111/1 115/107/1
f 107/106/1 122/112/1 123/109/1
f 108/113/1 122/112/1 107/106/1
f 117/114/1 114/111/1 116/110/1
f 109/115/1 122/112/1 108/113/1
f 109/115/1 121/116/1 122/112/1
f 117/114/1 113/117/1 114/111/1
f 118/118/1 113/117/1 117/114/1
f 119/119/1 113/117/1 118/118/1
f 110/120/1 121/116/1 109/115/1
f 119/119/1 112/121/1 113/117/1
f 110/120/1 120/122/1 121/116/1
f 120/122/1 112/121/1 119/119/1
f 110/120/1 112/121/1 120/122/1
f 111/123/1 112/121/1 110/120/1
f 125/124/1 137/125/1 124/126/1
f 125/124/1 136/127/1 137/125/1
f 125/124/1 135/128/1 136/127/1
f 126/129/1 135/128/1 125/124/1
f 127/130/1 135/128/1 126/129/1
f 128/131/1 134/132/1 127/130/1
f 134/132/1 135/128/1 127/130/1
f 128/131/1 133/133/1 134/132/1
f 132/134/1 130/135/1 131/136/1
f 128/131/1 132/134/1 133/133/1
f 128/131/1 130/135/1 132/134/1
f 129/137/1 130/135/1 128/131/1
f 146/138/1 144/139/1 145/140/1
f 146/138/1 147/141/1 144/139/1
f 140/142/1 138/143/1 139/144/1
f 140/142/1 143/145/1 138/143/1
f 141/146/1 143/145/1 140/142/1
f 141/146/1 142/147/1 143/145/1
f 153/148/1 156/149/1 152/150/1
f 154/151/1 156/149/1 153/148/1
f 154/151/1 155/152/1 156/149/1
f 150/153/1 148/154/1 149/155/1
f 150/153/1 151/156/1 148/154/1
f 162/157/1 160/158/1 161/159/1
f 162/157/1 159/160/1 160/158/1
f 159/160/1 157/161/1 158/162/1
f 159/160/1 162/157/1 157/161/1
